<?xml version="1.0" encoding="utf-8"?>
<!-- Generator: Adobe Illustrator 16.0.0, SVG Export Plug-In . SVG Version: 6.00 Build 0)  -->
<!DOCTYPE svg PUBLIC "-//W3C//DTD SVG 1.1//EN" "http://www.w3.org/Graphics/SVG/1.1/DTD/svg11.dtd">
<svg version="1.1" id="Calque_1" xmlns="http://www.w3.org/2000/svg" xmlns:xlink="http://www.w3.org/1999/xlink" x="0px" y="0px"
	 width="144px" height="144px" viewBox="0 0 144 144" enable-background="new 0 0 144 144" xml:space="preserve">
<g id="icon-github">
	<path d="M72,1.765c-39.6,0-72,32.401-72,72c0,31.95,20.701,58.95,49.049,68.401c3.601,0.449,4.951-1.352,4.951-3.602
		c0-1.799,0-6.299,0-12.149c-20.25,4.501-24.299-9.45-24.299-9.45c-3.151-8.1-8.101-10.35-8.101-10.35c-6.75-4.5,0.45-4.5,0.45-4.5
		c7.201,0.449,11.25,7.199,11.25,7.199c6.3,10.801,16.651,7.65,21.151,5.851c0.45-4.5,2.7-7.65,4.5-9.45
		c-16.201-1.8-32.851-8.1-32.851-35.549c0-7.651,2.7-14.401,7.2-19.352c-0.899-1.799-3.149-9,0.901-18.898c0,0,5.849-1.8,19.799,7.2
		c5.85-1.802,11.701-2.25,18-2.25c6.299,0,12.15,0.899,18,2.25c13.951-9.45,19.799-7.651,19.799-7.651
		c4.051,9.901,1.352,17.099,0.902,18.901c4.5,4.948,7.199,11.25,7.199,19.349c0,27.45-16.65,33.75-32.852,35.549
		c2.701,2.25,4.951,6.75,4.951,13.5c0,9.45,0,17.55,0,19.8c0,1.801,1.35,4.051,4.951,3.602C123.299,132.715,144,105.715,144,73.765
		C144,34.166,111.6,1.765,72,1.765z"/>
</g>
</svg>
